<svg xmlns="http://www.w3.org/2000/svg" xmlns:xlink="http://www.w3.org/1999/xlink" width="100" zoomAndPan="magnify" viewBox="0 0 75 74.999997" height="100" preserveAspectRatio="xMidYMid meet" version="1.0"><defs><clipPath id="27d8774926"><path d="M 10.78125 0 L 64.03125 0 L 64.03125 75 L 10.78125 75 Z M 10.78125 0 " clip-rule="nonzero"/></clipPath></defs><g clip-path="url(#27d8774926)"><path fill="#040606" d="M 16.25 26.164062 C 16.382812 25.433594 16.578125 24.671875 16.835938 23.898438 C 15.667969 22.554688 14.859375 21.046875 14.507812 19.566406 C 14.089844 20.082031 13.675781 20.597656 13.261719 21.109375 C 13.84375 21.945312 14.382812 22.824219 14.902344 23.671875 C 15.078125 23.960938 15.253906 24.246094 15.429688 24.535156 C 15.515625 24.667969 15.734375 25.113281 16.082031 25.824219 C 16.132812 25.933594 16.191406 26.046875 16.25 26.164062 Z M 17.386719 22.453125 C 17.679688 21.757812 18.019531 21.050781 18.421875 20.300781 C 18.265625 19.875 18.097656 19.449219 17.933594 19.015625 C 17.613281 18.199219 17.289062 17.355469 17.027344 16.507812 C 16.523438 17.109375 16.007812 17.730469 15.484375 18.367188 C 16.039062 19.886719 16.652344 21.203125 17.386719 22.453125 Z M 19.53125 18.382812 C 19.667969 18.164062 19.808594 17.941406 19.960938 17.710938 C 19.722656 16.789062 19.4375 15.898438 19.207031 15.21875 C 19.144531 15.023438 19.074219 14.835938 19.003906 14.644531 C 18.964844 14.539062 18.925781 14.429688 18.886719 14.324219 C 18.710938 14.527344 18.535156 14.726562 18.363281 14.933594 C 18.925781 16.011719 19.269531 17.257812 19.53125 18.382812 Z M 21.148438 15.953125 C 21.375 15.636719 21.613281 15.300781 21.878906 14.9375 C 21.695312 14.117188 21.492188 13.320312 21.269531 12.574219 C 21.226562 12.417969 21.175781 12.265625 21.128906 12.113281 C 21.105469 12.039062 21.082031 11.964844 21.058594 11.890625 C 20.746094 12.230469 20.4375 12.570312 20.132812 12.914062 C 20.625 13.796875 20.925781 14.867188 21.148438 15.953125 Z M 23.257812 13.085938 C 23.234375 13.027344 23.21875 12.964844 23.214844 12.902344 C 23.132812 12.222656 23.046875 11.492188 22.933594 10.761719 C 22.894531 10.5 22.855469 10.246094 22.847656 9.980469 C 22.691406 10.144531 22.535156 10.3125 22.378906 10.476562 C 22.824219 11.285156 23.03125 12.261719 23.175781 13.195312 C 23.203125 13.160156 23.230469 13.121094 23.257812 13.085938 Z M 26.585938 8.886719 C 26.542969 8.804688 26.515625 8.714844 26.503906 8.621094 L 26.484375 8.4375 C 26.4375 8.015625 26.386719 7.578125 26.386719 7.136719 C 26.386719 7.003906 26.394531 6.871094 26.402344 6.734375 C 26.410156 6.65625 26.421875 6.585938 26.441406 6.519531 C 25.632812 7.214844 24.859375 7.949219 24.117188 8.6875 C 24.171875 8.730469 24.21875 8.785156 24.257812 8.847656 C 24.578125 9.335938 24.625 9.933594 24.671875 10.457031 C 24.683594 10.589844 24.691406 10.71875 24.707031 10.84375 C 24.71875 10.945312 24.730469 11.050781 24.742188 11.15625 C 24.832031 11.046875 24.917969 10.9375 25.003906 10.828125 C 25.003906 10.703125 25 10.582031 25 10.457031 C 25 10.046875 25.015625 9.5625 25.136719 9.089844 C 25.199219 8.851562 25.417969 8.679688 25.671875 8.679688 C 25.914062 8.679688 26.117188 8.839844 26.175781 9.074219 C 26.195312 9.152344 26.214844 9.230469 26.230469 9.3125 C 26.347656 9.171875 26.464844 9.027344 26.585938 8.886719 Z M 29.410156 69.382812 C 29.457031 68.667969 29.511719 67.902344 29.578125 67.050781 C 28.207031 65.277344 27.15625 62.695312 26.664062 59.9375 C 26.648438 60.214844 26.621094 60.496094 26.59375 60.792969 C 26.542969 61.355469 26.488281 61.941406 26.488281 62.5 C 26.488281 63.382812 26.621094 64.035156 26.910156 64.554688 C 27.824219 66.21875 28.664062 67.835938 29.410156 69.382812 Z M 30.355469 57.667969 C 30.425781 56.8125 30.5 55.855469 30.570312 54.886719 L 30.5625 54.871094 C 30.261719 54.320312 29.949219 53.773438 29.636719 53.230469 C 29.226562 52.511719 28.804688 51.773438 28.414062 51.027344 C 27.882812 50.019531 27.367188 48.957031 26.976562 47.835938 C 26.941406 49.617188 26.90625 51.242188 26.867188 52.816406 L 26.832031 54.277344 C 26.800781 55.492188 26.769531 56.742188 26.734375 57.984375 C 26.859375 57.878906 27.023438 57.808594 27.207031 57.796875 C 27.667969 57.765625 28.058594 58.082031 28.117188 58.53125 C 28.347656 60.238281 28.921875 61.960938 29.828125 63.65625 C 29.835938 63.667969 29.839844 63.679688 29.847656 63.691406 C 29.902344 63.011719 29.960938 62.328125 30.019531 61.648438 C 29.632812 60.816406 29.292969 59.933594 28.988281 59.15625 C 28.863281 58.824219 28.738281 58.503906 28.617188 58.203125 C 27.714844 55.964844 27.316406 54.027344 27.316406 51.933594 L 27.316406 51.695312 C 27.320312 51.339844 27.59375 51.0625 27.949219 51.054688 C 28.292969 51.042969 28.570312 51.300781 28.59375 51.648438 C 28.742188 53.769531 29.539062 55.855469 30.355469 57.667969 Z M 30.8125 51.011719 C 30.832031 50.585938 30.851562 50.160156 30.871094 49.734375 L 30.890625 49.28125 C 30.160156 48.140625 29.589844 46.886719 29.039062 45.675781 C 28.90625 45.382812 28.777344 45.097656 28.644531 44.820312 C 28.117188 43.691406 27.605469 42.503906 27.089844 41.234375 C 27.085938 41.605469 27.066406 42.789062 27.066406 42.789062 C 27.101562 42.792969 27.140625 42.800781 27.175781 42.808594 C 27.464844 42.882812 27.648438 43.128906 27.648438 43.4375 L 27.648438 43.492188 C 27.648438 46.125 29.148438 48.664062 30.46875 50.902344 L 30.789062 51.445312 C 30.796875 51.300781 30.804688 51.15625 30.8125 51.011719 Z M 30.914062 31.113281 C 30.953125 30.6875 30.984375 30.230469 30.984375 29.773438 C 30.984375 29.148438 30.929688 28.605469 30.824219 28.125 C 30.128906 28.191406 29.429688 28.207031 28.765625 28.199219 C 28.953125 28.414062 29.144531 28.636719 29.3125 28.886719 L 29.363281 28.960938 C 29.796875 29.601562 30.242188 30.265625 30.726562 30.875 C 30.789062 30.953125 30.851562 31.035156 30.914062 31.113281 Z M 31.0625 44.78125 L 30.933594 44.503906 C 30.757812 44.121094 30.574219 43.726562 30.375 43.363281 C 30 42.6875 29.605469 42.003906 29.222656 41.34375 C 28.953125 40.882812 28.683594 40.417969 28.417969 39.953125 C 29 41.320312 29.628906 42.679688 30.296875 44.023438 C 30.527344 44.484375 30.78125 44.949219 31.042969 45.40625 C 31.046875 45.199219 31.054688 44.992188 31.0625 44.78125 Z M 31.1875 40.128906 C 30.808594 39.457031 30.472656 38.734375 30.152344 38.035156 C 29.835938 37.355469 29.539062 36.714844 29.207031 36.117188 C 28.535156 34.914062 27.847656 33.679688 27.199219 32.410156 L 27.195312 32.597656 C 27.710938 34.960938 29.039062 37.117188 30.320312 39.203125 C 30.539062 39.5625 30.757812 39.917969 30.972656 40.273438 C 31.039062 40.382812 31.105469 40.496094 31.179688 40.613281 C 31.183594 40.449219 31.1875 40.289062 31.1875 40.128906 Z M 28.210938 7.007812 C 29.632812 5.429688 31.007812 4.070312 32.382812 2.882812 C 31.851562 3 31.265625 3.230469 30.632812 3.570312 C 29.425781 4.21875 28.296875 5.003906 27.234375 5.859375 C 27.269531 5.851562 27.304688 5.851562 27.339844 5.851562 C 27.808594 5.851562 28.160156 6.191406 28.195312 6.683594 C 28.207031 6.789062 28.210938 6.898438 28.210938 7.007812 Z M 53.289062 22.929688 C 54.839844 22.683594 56.394531 22.691406 58.054688 22.777344 C 53.070312 19.195312 48.363281 15.148438 43.800781 11.226562 C 40.992188 8.808594 38.089844 6.3125 35.152344 3.953125 C 31.226562 7.039062 27.914062 11.175781 25.453125 14.457031 L 25.394531 14.535156 C 22.953125 17.792969 20.195312 21.472656 19.0625 25.421875 C 20.300781 25.457031 21.554688 25.515625 22.769531 25.570312 C 23.457031 25.601562 24.140625 25.632812 24.824219 25.660156 C 25.542969 25.6875 26.289062 25.695312 27.011719 25.699219 C 28.585938 25.710938 30.210938 25.722656 31.761719 25.972656 C 32.21875 26.046875 32.601562 26.488281 32.601562 26.9375 C 32.601562 26.945312 32.601562 26.972656 32.601562 26.980469 C 32.585938 27.316406 32.578125 27.679688 32.578125 28.128906 C 32.578125 28.230469 32.578125 28.332031 32.578125 28.429688 C 32.820312 28.4375 33.0625 28.511719 33.261719 28.648438 C 33.554688 28.84375 33.734375 29.144531 33.769531 29.5 C 33.777344 29.527344 33.777344 29.558594 33.777344 29.585938 C 33.769531 33.382812 33.722656 37.085938 33.628906 40.59375 C 33.667969 40.789062 33.6875 40.949219 33.699219 41.097656 C 33.703125 41.109375 33.703125 41.148438 33.703125 41.15625 C 33.703125 41.285156 33.667969 41.414062 33.601562 41.53125 C 33.566406 42.769531 33.519531 44.003906 33.476562 45.238281 C 33.542969 45.566406 33.578125 45.886719 33.578125 46.1875 C 33.578125 46.296875 33.570312 46.410156 33.5625 46.519531 C 33.550781 46.648438 33.5 46.769531 33.414062 46.867188 C 33.375 47.84375 33.328125 48.820312 33.28125 49.796875 C 33.375 50.0625 33.453125 50.292969 33.511719 50.507812 C 33.53125 50.566406 33.539062 50.628906 33.539062 50.691406 C 33.539062 50.871094 33.460938 51.046875 33.328125 51.175781 C 33.292969 51.214844 33.246094 51.246094 33.203125 51.273438 L 32.992188 55.160156 C 33.652344 56.476562 33.960938 57.554688 33.960938 58.550781 C 33.957031 58.929688 33.730469 59.230469 33.398438 59.328125 C 33.164062 59.394531 32.929688 59.347656 32.746094 59.207031 C 32.679688 60.21875 32.609375 61.171875 32.535156 62.09375 C 32.769531 62.734375 32.902344 63.304688 32.929688 63.832031 C 32.929688 63.835938 32.929688 63.859375 32.929688 63.867188 C 32.929688 64.152344 32.746094 64.421875 32.464844 64.535156 C 32.414062 64.554688 32.363281 64.570312 32.308594 64.578125 C 32.050781 67.210938 31.734375 69.554688 31.347656 71.714844 C 31.40625 71.671875 31.46875 71.636719 31.535156 71.609375 C 31.792969 71.5 32.085938 71.503906 32.324219 71.613281 C 32.347656 71.613281 32.375 71.613281 32.40625 71.617188 C 32.664062 71.617188 32.925781 71.621094 33.1875 71.613281 C 33.628906 71.605469 34.070312 71.597656 34.511719 71.589844 L 35.613281 71.570312 C 37.457031 71.53125 39.332031 71.457031 41.148438 71.386719 L 42.140625 71.347656 C 43.550781 71.296875 44.957031 71.230469 46.367188 71.164062 C 48.714844 71.054688 51.140625 70.945312 53.535156 70.886719 C 53.445312 69.78125 53.363281 68.671875 53.277344 67.566406 C 53.054688 64.660156 52.824219 61.660156 52.507812 58.710938 C 52.421875 57.894531 52.332031 57.078125 52.246094 56.257812 C 51.851562 52.644531 51.445312 48.90625 51.214844 45.210938 C 51.039062 42.363281 51.015625 39.515625 51.015625 37.105469 C 51.015625 36.226562 51.019531 35.347656 51.023438 34.46875 C 51.027344 33.589844 51.03125 32.714844 51.03125 31.835938 L 51.03125 31.289062 C 51.027344 30.382812 51.011719 29.472656 50.996094 28.558594 C 50.980469 27.609375 50.960938 26.625 50.960938 25.660156 C 50.960938 24.9375 50.972656 24.289062 50.992188 23.679688 C 50.992188 23.300781 51.128906 22.976562 51.382812 22.753906 C 51.652344 22.511719 52.039062 22.394531 52.414062 22.441406 C 52.785156 22.460938 53.101562 22.644531 53.289062 22.929688 Z M 64.027344 24.445312 C 64.027344 24.808594 63.902344 25.132812 63.667969 25.363281 C 63.441406 25.589844 63.132812 25.707031 62.773438 25.703125 C 61.75 25.691406 60.6875 25.613281 59.664062 25.535156 C 57.617188 25.382812 55.503906 25.222656 53.519531 25.597656 C 53.527344 26.21875 53.53125 26.835938 53.53125 27.457031 C 53.53125 29.34375 53.496094 31.265625 53.460938 33.121094 C 53.429688 34.972656 53.394531 36.890625 53.394531 38.773438 C 53.394531 41.1875 53.449219 43.195312 53.570312 45.085938 C 53.761719 48.144531 54.117188 51.285156 54.457031 54.324219 C 54.980469 58.984375 55.519531 63.796875 55.519531 68.523438 C 55.519531 69.992188 55.464844 71.417969 55.363281 72.761719 C 55.328125 73.175781 55.039062 73.5 54.640625 73.566406 C 54.359375 73.609375 54.09375 73.515625 53.917969 73.324219 C 51.390625 73.34375 48.828125 73.429688 46.34375 73.515625 C 44.269531 73.585938 42.121094 73.660156 40.011719 73.695312 C 39.925781 73.695312 39.753906 73.703125 39.511719 73.714844 C 34.554688 73.960938 32.007812 73.746094 31.25 73.023438 C 31.148438 72.925781 31.082031 72.824219 31.042969 72.730469 C 31.015625 72.757812 30.992188 72.785156 30.964844 72.8125 C 31.101562 73.140625 31.238281 73.46875 31.367188 73.792969 C 31.402344 73.886719 31.421875 73.984375 31.421875 74.078125 C 31.421875 74.410156 31.199219 74.71875 30.871094 74.851562 C 30.558594 74.980469 30.226562 74.914062 30.007812 74.679688 C 28.511719 73.113281 27.574219 71.085938 26.667969 69.125 C 26.0625 67.824219 25.441406 66.476562 24.667969 65.308594 C 24.242188 64.664062 24.042969 63.828125 24.042969 62.675781 C 24.042969 62.078125 24.09375 61.472656 24.144531 60.890625 C 24.183594 60.425781 24.222656 59.988281 24.230469 59.59375 C 24.253906 58.3125 24.289062 57.035156 24.324219 55.753906 C 24.34375 55.023438 24.363281 54.289062 24.378906 53.558594 C 24.550781 46.578125 24.746094 37.371094 24.75 28.027344 C 24.566406 28.019531 24.382812 28.011719 24.203125 28.007812 C 21.945312 27.941406 19.6875 27.945312 17.503906 27.949219 C 17.324219 27.949219 17.15625 27.914062 16.996094 27.855469 C 16.972656 27.921875 16.929688 27.984375 16.875 28.039062 C 16.710938 28.207031 16.5 28.277344 16.261719 28.253906 C 15.246094 28.136719 13.738281 26.042969 11.628906 22.699219 C 11.332031 22.230469 11.078125 21.824219 10.976562 21.699219 C 10.847656 21.53125 10.78125 21.324219 10.78125 21.101562 C 10.78125 20.84375 10.875 20.570312 11.042969 20.355469 C 11.644531 19.59375 12.238281 18.828125 12.828125 18.0625 C 16.101562 13.847656 19.484375 9.488281 23.515625 5.757812 C 25.65625 3.777344 28.316406 1.3125 31.402344 0.484375 C 33.128906 0.0234375 35.953125 0.296875 36.859375 1.992188 C 39.765625 4.320312 42.640625 6.789062 45.421875 9.175781 C 51.09375 14.046875 56.960938 19.082031 63.359375 23.179688 C 63.773438 23.445312 64.027344 23.929688 64.027344 24.445312 " fill-opacity="1" fill-rule="nonzero"/></g></svg>